<svg xmlns="http://www.w3.org/2000/svg" class="icon icon-tabler icon-tabler-ball-volleyball" width="50px" height="50px" viewBox="0 -1 20 20" stroke-width="0.93" stroke="rgba(129, 88, 172, 1)" fill="rgba(255, 255, 255, 1)" stroke-linecap="round" stroke-linejoin="round"><g transform="translate(2.40, 2.40) scale(0.8)"><path stroke="none" d="M0 0h24v24H0z" fill="none"/><circle cx="12" cy="12" r="9"/><path d="M12 12a8 8 0 0 0 8 4m-12.5 -2.5a12 12 0 0 0 8.5 6.5"/><path d="M12 12a8 8 0 0 0 8 4m-12.5 -2.5a12 12 0 0 0 8.5 6.5" transform="rotate(120 12 12)"/><path d="M12 12a8 8 0 0 0 8 4m-12.5 -2.5a12 12 0 0 0 8.5 6.5" transform="rotate(240 12 12)"/></g>
  
  
  
  
  
</svg>